<svg xmlns="http://www.w3.org/2000/svg" width="241.999" height="356" viewBox="0 0 241.999 356">
  <g id="Group_5" data-name="Group 5" transform="translate(-931 -437)">
    <g id="Group_4" data-name="Group 4">
      <path id="Union_5" data-name="Union 5" d="M-563.5,1798a16.5,16.5,0,0,1-16.5-16.5,16.5,16.5,0,0,1,16.5-16.5h3.5l-20-225h242l-20,225h2.5a16.5,16.5,0,0,1,16.5,16.5,16.5,16.5,0,0,1-16.5,16.5Z" transform="translate(1511 -1103)"/>
      <path id="Exclusion_2" data-name="Exclusion 2" d="M171.961,83a92.684,92.684,0,0,1-21.474-2.47,76.11,76.11,0,0,1-18.3-6.831A52.384,52.384,0,0,0,117.4,71.21,53.662,53.662,0,0,0,103.369,73.4a75.54,75.54,0,0,1-18.511,7.05A92.556,92.556,0,0,1,63.039,83a95.511,95.511,0,0,1-12.7-.843A88.112,88.112,0,0,1,38.5,79.739a77.769,77.769,0,0,1-10.708-3.826,65.187,65.187,0,0,1-9.33-5.068,52.033,52.033,0,0,1-7.7-6.142,40.4,40.4,0,0,1-5.812-7.049,32.059,32.059,0,0,1-3.673-7.79,27.95,27.95,0,0,1,0-16.727,32.057,32.057,0,0,1,3.673-7.79A40.4,40.4,0,0,1,10.766,18.3a52.029,52.029,0,0,1,7.7-6.142,65.175,65.175,0,0,1,9.33-5.068A77.772,77.772,0,0,1,38.5,3.261,88.122,88.122,0,0,1,50.334.843a96.148,96.148,0,0,1,25.2-.028,88.355,88.355,0,0,1,11.657,2.34A78.276,78.276,0,0,1,97.769,6.861a65.975,65.975,0,0,1,9.259,4.914,26.782,26.782,0,0,0,10.335,2.384,22.967,22.967,0,0,0,5.947-.852,34.889,34.889,0,0,0,5.273-1.919,64.588,64.588,0,0,1,5.8-3.213l.09-.062v.018a78.293,78.293,0,0,1,17.406-5.981A93.187,93.187,0,0,1,171.961,0a95.5,95.5,0,0,1,12.7.843A88.121,88.121,0,0,1,196.5,3.261a77.77,77.77,0,0,1,10.708,3.826,65.185,65.185,0,0,1,9.33,5.068,52.03,52.03,0,0,1,7.7,6.142,40.4,40.4,0,0,1,5.812,7.049,32.057,32.057,0,0,1,3.673,7.79,27.949,27.949,0,0,1,0,16.727,32.062,32.062,0,0,1-3.673,7.79,40.4,40.4,0,0,1-5.812,7.049,52.035,52.035,0,0,1-7.7,6.142,65.19,65.19,0,0,1-9.33,5.068A77.774,77.774,0,0,1,196.5,79.739a88.115,88.115,0,0,1-11.833,2.418A95.511,95.511,0,0,1,171.961,83Zm4.588-56.591A32.761,32.761,0,0,0,167.7,27.6a25.5,25.5,0,0,0-7.229,3.234,16.48,16.48,0,0,0-4.874,4.8,10.547,10.547,0,0,0,0,11.748,16.481,16.481,0,0,0,4.874,4.8,25.494,25.494,0,0,0,7.229,3.234,33.631,33.631,0,0,0,17.7,0,25.494,25.494,0,0,0,7.229-3.234,16.481,16.481,0,0,0,4.874-4.8,10.547,10.547,0,0,0,0-11.748,16.48,16.48,0,0,0-4.874-4.8A25.5,25.5,0,0,0,185.4,27.6,32.761,32.761,0,0,0,176.549,26.409Zm-117.7,0A32.761,32.761,0,0,0,50,27.6a25.494,25.494,0,0,0-7.229,3.234,16.48,16.48,0,0,0-4.874,4.8,10.547,10.547,0,0,0,0,11.748,16.481,16.481,0,0,0,4.874,4.8A25.494,25.494,0,0,0,50,55.405a33.631,33.631,0,0,0,17.7,0,25.494,25.494,0,0,0,7.229-3.234,16.481,16.481,0,0,0,4.874-4.8,10.547,10.547,0,0,0,0-11.748,16.48,16.48,0,0,0-4.874-4.8A25.5,25.5,0,0,0,67.7,27.6,32.761,32.761,0,0,0,58.849,26.409Z" transform="translate(934 710)"/>
    </g>
  </g>
</svg>
